<svg width="163" height="52" viewBox="0 0 163 52" fill="none" xmlns="http://www.w3.org/2000/svg">
<path d="M50.5834 14.9597L50.5837 14.9599C59.1852 19.8301 59.1852 31.8952 50.5837 36.7655L50.5834 36.7656C48.5649 37.9102 46.548 39.0547 44.5317 40.1987C39.0675 43.2992 33.6087 46.3967 28.1394 49.4844L28.1374 49.4855C19.4142 54.4619 8.52246 48.3436 8.52246 38.6097V13.1528C8.52246 3.42039 19.4136 -2.68269 28.1389 2.24076C31.8829 4.3637 35.6221 6.482 39.3612 8.60024L39.3616 8.6005C43.1007 10.7187 46.8397 12.8369 50.5834 14.9597Z" fill="#00CC9B" stroke="white"/>
<path d="M6.95143 36.8049L6.95116 36.8048C-1.65039 31.9345 -1.65039 19.8694 6.95116 14.9992L6.95143 14.999C8.96974 13.8546 10.9865 12.7102 13.0026 11.5662C18.467 8.46568 23.926 5.3681 29.3955 2.2803L29.3971 2.27935C38.102 -2.67921 49.0124 3.44022 49.0124 13.155V38.6119C49.0124 48.3441 38.1216 54.4472 29.3963 49.5241C25.6522 47.4011 21.9129 45.2827 18.1737 43.1644C14.4345 41.0461 10.6953 38.9278 6.95143 36.8049Z" fill="#013F6A" stroke="white"/>
<path d="M22.8274 31.1193C22.8274 31.1193 25.3871 33.9932 28.8828 33.9932C30.7739 33.9932 32.4739 33.0105 32.4739 31.1193C32.4739 26.9847 20.7262 27.3369 20.7262 19.7907C20.7262 15.86 24.241 12.9676 29.0547 12.9676C31.9773 12.9676 36.4663 14.3025 36.4663 17.7512V19.9947H32.3211V18.9007C32.3211 17.7697 30.6784 17.0281 29.0165 17.0281C26.9153 17.0281 25.368 18.0849 25.368 19.6238C25.368 23.7585 37.1157 22.9427 37.1157 30.8783C37.1157 34.7348 34.0594 38.0166 28.8255 38.0166C23.305 38.0166 20.2487 34.2713 20.2487 34.2713L22.8274 31.1193Z" fill="white"/>
<path d="M69.6433 30.3684C69.6433 30.3684 71.7255 32.7046 74.5335 32.7046C75.7942 32.7046 76.7493 32.204 76.7493 31.1471C76.7493 28.9037 68.0961 28.9408 68.0961 23.7863C68.0961 20.5973 71.0569 19.1325 74.4571 19.1325C76.6729 19.1325 80.2068 19.8556 80.2068 22.4328V24.083H76.6156V23.3043C76.6156 22.5626 75.4504 22.1732 74.5526 22.1732C73.1008 22.1732 72.1075 22.6739 72.1075 23.6009C72.1075 26.104 80.818 25.6034 80.818 30.9061C80.818 33.8912 78.0864 35.7639 74.5144 35.7639C70.0063 35.7639 67.6949 32.9271 67.6949 32.9271L69.6433 30.3684Z" fill="#013F6A"/>
<path d="M91.3048 19.1325C96.0038 19.1325 98.5635 22.4699 98.5635 26.6787C98.5635 27.1423 98.468 28.1435 98.468 28.1435H87.1596C87.4844 30.9432 89.6047 32.4079 92.0688 32.4079C94.7049 32.4079 96.6724 30.628 96.6724 30.628L98.3725 33.3721C98.3725 33.3721 95.8701 35.7824 91.7823 35.7824C86.3574 35.7824 82.9763 31.9815 82.9763 27.4575C82.9763 22.5626 86.3765 19.1325 91.3048 19.1325ZM94.3802 25.3994C94.3229 23.4897 92.9666 22.1918 91.2857 22.1918C89.2035 22.1918 87.7136 23.4155 87.2743 25.3994H94.3802Z" fill="#013F6A"/>
<path d="M102.422 17.3155C102.422 16.8519 102.174 16.6294 101.715 16.6294H100.435V13.2735H104.332C105.841 13.2735 106.51 13.9224 106.51 15.3872V31.3881C106.51 31.8331 106.758 32.0742 107.217 32.0742H108.477V35.4116H104.619C103.072 35.4116 102.441 34.7812 102.441 33.2979V17.3155H102.422Z" fill="#013F6A"/>
<path d="M111.764 17.3155C111.764 16.8519 111.516 16.6294 111.057 16.6294H109.777V13.2735H113.674C115.183 13.2735 115.852 13.9224 115.852 15.3872V31.3881C115.852 31.8331 116.1 32.0742 116.559 32.0742H117.819V35.4116H113.961C112.414 35.4116 111.783 34.7812 111.783 33.2979V17.3155H111.764Z" fill="#013F6A"/>
<path d="M121.277 30.3684C121.277 30.3684 123.359 32.7046 126.167 32.7046C127.427 32.7046 128.382 32.204 128.382 31.1471C128.382 28.9037 119.729 28.9408 119.729 23.7863C119.729 20.5973 122.69 19.1325 126.09 19.1325C128.306 19.1325 131.84 19.8556 131.84 22.4328V24.083H128.249V23.3043C128.249 22.5626 127.084 22.1732 126.186 22.1732C124.734 22.1732 123.741 22.6739 123.741 23.6009C123.741 26.104 132.451 25.6034 132.451 30.9061C132.451 33.8912 129.72 35.7639 126.148 35.7639C121.639 35.7639 119.328 32.9271 119.328 32.9271L121.277 30.3684Z" fill="#013F6A"/>
<path d="M136.385 23.5638C136.385 23.1003 136.137 22.8778 135.678 22.8778H134.398V19.5033H138.295C139.804 19.5033 140.454 20.1522 140.454 21.617V31.3881C140.454 31.8331 140.702 32.0742 141.16 32.0742H142.44V35.4116H138.543C137.034 35.4116 136.385 34.7812 136.385 33.2979V23.5638ZM136.576 13.2735H140.11V16.9261H136.576V13.2735Z" fill="#013F6A"/>
<path d="M153.196 19.1325C158.2 19.1325 162.193 22.5997 162.193 27.4575C162.193 32.3523 158.2 35.7824 153.196 35.7824C148.21 35.7824 144.237 32.3523 144.237 27.4575C144.237 22.5997 148.21 19.1325 153.196 19.1325ZM153.196 32.4265C155.87 32.4265 158.086 30.424 158.086 27.476C158.086 24.5465 155.87 22.5255 153.196 22.5255C150.56 22.5255 148.344 24.5465 148.344 27.476C148.344 30.424 150.56 32.4265 153.196 32.4265Z" fill="#013F6A"/>
</svg>
